 <svg  version="1.0" xmlns="http://www.w3.org/2000/svg"  width="300.000000pt" height="215.000000pt" viewBox="0 0 300.000000 215.000000"  preserveAspectRatio="xMidYMid meet">  <g transform="translate(0.000000,215.000000) scale(0.100000,-0.100000)" fill="#008080" stroke="none"> <path d="M770 1400 l0 -730 43 0 42 0 688 687 687 688 0 42 0 43 -730 0 -730 0 0 -730z m1385 650 l-39 -40 -613 0 -613 0 0 -612 1 -612 -48 -45 c-26 -25 -39 -37 -30 -25 16 19 17 74 17 687 l0 667 669 0 c436 0 672 3 676 10 3 6 9 10 13 10 3 0 -12 -18 -33 -40z m-65 -64 c0 -2 -24 -27 -52 -55 l-53 -51 -482 0 -483 0 0 -482 -1 -483 -45 -49 c-24 -27 -48 -46 -51 -42 -4 3 2 13 13 20 18 14 19 34 21 558 l3 543 540 3 c524 2 541 3 560 22 19 19 30 25 30 16z m-176 -181 l-49 -44 -362 -1 -363 0 0 -362 -1 -363 -45 -49 c-24 -27 -47 -46 -50 -43 -3 3 4 14 15 24 21 17 21 24 21 435 l0 418 414 0 c393 0 415 1 437 19 46 37 32 10 -17 -34z m-81 -78 c-4 -7 -29 -32 -54 -55 l-47 -43 -233 1 -234 1 -2 -236 -1 -237 -32 -33 c-21 -22 -29 -38 -25 -47 5 -7 5 -10 0 -6 -4 4 -14 3 -22 -3 -19 -16 -17 5 2 25 13 12 15 61 15 310 l0 296 298 0 c285 0 298 1 315 20 19 22 32 27 20 7z m-126 -136 c0 -10 -6 -17 -12 -15 -6 3 -26 -11 -45 -31 l-34 -35 -113 0 -113 0 0 -112 -1 -113 -45 -49 c-25 -26 -47 -46 -50 -43 -3 2 3 13 13 23 16 15 18 37 18 186 l0 168 170 0 c158 0 172 1 188 20 21 25 26 25 24 1z m-203 -195 c-47 -48 -89 -85 -91 -82 -3 2 5 13 16 23 16 13 21 29 21 65 l0 48 45 0 c32 0 51 6 66 21 11 11 23 19 25 16 3 -3 -34 -44 -82 -91z"/> <path d="M1585 1310 l-640 -640 45 0 45 0 598 598 598 598 -3 42 -3 42 -640 -640z"/> <path d="M1670 1225 l-555 -555 45 0 45 0 513 513 513 513 -3 42 -3 42 -555 -555z"/> <path d="M1755 1140 l-470 -470 45 0 45 0 428 428 428 428 -3 42 -3 42 -470 -470z"/> <path d="M1840 1055 l-385 -385 45 0 45 0 343 343 343 343 -3 42 -3 42 -385 -385z"/> <path d="M1923 971 c-161 -163 -293 -297 -293 -298 0 -2 19 -3 43 -3 42 0 44 1 300 258 255 255 257 257 257 300 0 23 -3 41 -7 40 -5 -1 -140 -134 -300 -297z"/> <path d="M2013 890 c-117 -118 -213 -216 -213 -217 0 -2 19 -3 43 -3 41 0 45 4 215 173 l173 173 -3 45 -3 44 -212 -215z"/> <path d="M2094 803 l-131 -133 41 0 c38 0 47 6 134 91 91 88 93 91 90 132 l-3 42 -131 -132z"/> <path d="M2176 720 l-49 -50 52 0 51 0 0 50 c0 28 -1 50 -2 50 -2 0 -25 -23 -52 -50z"/> <path d="M40 390 c0 -64 3 -80 15 -80 12 0 15 14 15 65 l0 65 55 0 c42 0 55 3 55 15 0 12 -14 15 -70 15 l-70 0 0 -80z"/> <path d="M200 390 c0 -64 3 -80 15 -80 12 0 15 16 15 80 0 64 -3 80 -15 80 -12 0 -15 -16 -15 -80z"/> <path d="M260 390 c0 -64 3 -80 15 -80 12 0 15 13 15 58 l1 57 54 -59 c30 -33 57 -57 59 -55 2 2 6 39 8 82 3 65 1 77 -11 75 -12 -2 -15 -15 -12 -51 1 -26 -1 -47 -4 -47 -4 0 -27 23 -52 50 -64 71 -73 67 -73 -30z"/> <path d="M460 455 c-6 -8 -14 -31 -17 -52 -7 -57 19 -85 80 -86 60 0 87 22 87 72 0 60 -22 81 -84 81 -35 0 -58 -5 -66 -15z m118 -53 c4 -43 -12 -62 -52 -62 -40 0 -56 16 -56 55 0 42 6 46 60 43 43 -3 45 -4 48 -36z"/> <path d="M620 467 c0 -15 74 -157 81 -157 7 0 79 141 79 156 0 2 -6 4 -13 4 -7 0 -25 -26 -41 -57 l-28 -58 -22 55 c-13 32 -29 56 -39 58 -9 2 -17 1 -17 -1z"/> <path d="M827 458 c-34 -26 -48 -143 -17 -143 9 0 14 7 12 18 -2 14 5 17 48 17 43 0 50 -3 50 -20 0 -11 7 -20 15 -20 12 0 15 16 15 80 l0 80 -53 0 c-29 0 -61 -6 -70 -12z m93 -48 c0 -29 -1 -30 -50 -30 -37 0 -50 4 -50 14 0 25 30 46 66 46 31 0 34 -2 34 -30z"/> <path d="M970 455 c0 -10 10 -15 30 -15 l30 0 0 -65 c0 -51 3 -65 15 -65 12 0 15 14 15 65 l0 65 30 0 c20 0 30 5 30 15 0 12 -15 15 -75 15 -60 0 -75 -3 -75 -15z"/> <path d="M1140 400 c0 -79 -3 -76 83 -83 45 -4 57 -3 57 9 0 10 -14 14 -54 14 -51 0 -54 1 -57 28 -9 64 -2 72 57 72 41 0 54 4 54 15 0 12 -14 15 -70 15 l-70 0 0 -70z"/> <path d="M1380 451 c-14 -27 -13 -106 3 -119 6 -5 39 -12 72 -14 47 -2 60 0 60 11 0 10 -15 14 -55 15 l-55 1 -3 47 -3 47 57 3 c35 2 59 8 62 16 3 9 -14 12 -62 12 -54 0 -67 -3 -76 -19z"/> <path d="M1546 448 c-22 -31 -20 -80 4 -110 17 -22 26 -25 67 -22 56 4 83 29 83 78 0 55 -23 76 -85 76 -44 0 -57 -4 -69 -22z m122 -46 c4 -43 -12 -62 -52 -62 -40 0 -56 16 -56 55 0 42 6 46 60 43 43 -3 45 -4 48 -36z"/> <path d="M1730 400 c0 -38 0 -73 0 -77 0 -5 6 -8 13 -8 8 0 11 15 9 53 -2 28 -1 52 2 52 3 0 28 -25 57 -55 28 -30 55 -52 60 -49 5 3 9 39 9 80 0 59 -3 74 -15 74 -11 0 -15 -13 -15 -54 l0 -55 -51 55 c-29 30 -56 54 -60 54 -5 0 -9 -31 -9 -70z"/> <path d="M1923 464 c-19 -8 -16 -71 3 -78 9 -3 36 -6 61 -6 37 0 44 -3 41 -17 -3 -15 -16 -19 -66 -21 -80 -4 -81 -26 -1 -27 60 -1 99 16 99 43 0 32 -17 44 -69 50 -69 9 -69 26 -1 32 30 3 54 10 53 15 -3 11 -99 18 -120 9z"/> <path d="M2080 416 c0 -87 27 -106 138 -97 8 1 12 23 12 76 0 62 -3 75 -16 75 -13 0 -15 -11 -13 -62 3 -61 2 -63 -24 -66 -50 -6 -67 13 -67 73 0 42 -3 55 -15 55 -11 0 -15 -13 -15 -54z"/> <path d="M2261 395 c0 -41 3 -75 7 -76 4 0 36 -1 72 -2 52 -2 65 1 65 13 0 12 -12 14 -57 12 l-58 -4 0 66 c0 50 -3 66 -14 66 -11 0 -14 -18 -15 -75z"/> <path d="M2390 455 c0 -10 10 -15 33 -15 l32 0 0 -62 c0 -40 4 -63 13 -65 9 -4 12 13 12 61 l0 66 30 0 c20 0 30 5 30 15 0 12 -15 15 -75 15 -60 0 -75 -3 -75 -15z"/> <path d="M2560 390 c0 -64 3 -80 15 -80 12 0 15 16 15 80 0 64 -3 80 -15 80 -12 0 -15 -16 -15 -80z"/> <path d="M2622 393 c2 -50 7 -78 16 -81 9 -3 12 13 12 55 l0 58 56 -57 c31 -32 60 -55 65 -52 5 3 9 39 9 80 0 59 -3 74 -15 74 -11 0 -15 -12 -15 -50 0 -27 -2 -50 -5 -50 -2 0 -25 23 -51 50 -66 71 -76 67 -72 -27z"/> <path d="M2822 458 c-7 -7 -12 -38 -12 -70 0 -58 13 -78 48 -72 6 1 33 2 58 3 l45 1 -3 43 -3 42 -47 3 c-38 2 -48 0 -48 -12 0 -12 10 -16 35 -16 29 0 35 -4 35 -21 0 -18 -5 -20 -47 -17 l-48 3 -3 48 -3 47 65 0 c52 0 66 3 66 15 0 12 -14 15 -63 15 -36 0 -68 -5 -75 -12z"/> <path d="M80 395 c0 -11 12 -15 45 -15 33 0 45 4 45 15 0 11 -12 15 -45 15 -33 0 -45 -4 -45 -15z"/> <path d="M1180 396 c0 -12 11 -16 46 -16 59 0 55 24 -4 28 -33 2 -42 0 -42 -12z"/> <path d="M853 135 c0 -33 2 -45 4 -27 2 18 2 45 0 60 -2 15 -4 0 -4 -33z"/> <path d="M2029 185 c-8 -7 3 -95 12 -95 12 0 12 87 0 94 -4 3 -10 4 -12 1z"/> <path d="M200 135 l0 -45 37 0 c20 0 33 3 29 7 -4 4 -16 8 -26 8 -27 0 -26 19 2 27 22 6 21 6 -4 7 -38 1 -36 21 2 21 17 0 30 5 30 10 0 6 -16 10 -35 10 -35 0 -35 0 -35 -45z"/> <path d="M1458 169 c-6 -19 4 -79 13 -79 5 0 9 12 10 28 0 15 2 35 4 45 3 18 -21 24 -27 6z"/> <path d="M1510 135 c0 -25 4 -45 9 -45 5 0 9 20 8 45 -3 59 -17 59 -17 0z"/> <path d="M1899 133 c4 -52 7 -49 13 10 2 22 0 37 -7 37 -6 0 -9 -18 -6 -47z"/> <path d="M2188 169 c-6 -18 3 -79 12 -79 9 0 18 61 12 79 -2 6 -7 11 -12 11 -5 0 -10 -5 -12 -11z"/> <path d="M2388 169 c-6 -18 3 -79 12 -79 9 0 19 60 13 78 -6 15 -20 16 -25 1z"/> <path d="M290 125 c0 -19 5 -35 10 -35 6 0 10 11 10 25 0 14 5 25 10 25 6 0 10 -11 10 -25 0 -14 5 -25 10 -25 6 0 10 11 10 25 0 34 27 32 33 -2 4 -21 4 -19 3 7 -1 35 -2 35 -48 37 l-48 2 0 -34z"/> <path d="M421 105 c1 -27 3 -42 6 -32 3 10 14 17 28 17 27 0 39 24 25 51 -7 12 -20 18 -35 17 -23 -2 -25 -6 -24 -53z m47 18 c-2 -10 -10 -18 -18 -18 -8 0 -16 8 -18 18 -2 12 3 17 18 17 15 0 20 -5 18 -17z"/> <path d="M512 144 c-16 -29 -2 -55 27 -52 19 2 27 10 29 27 6 37 -38 56 -56 25z m46 -21 c-2 -10 -10 -18 -18 -18 -8 0 -16 8 -18 18 -2 12 3 17 18 17 15 0 20 -5 18 -17z"/> <path d="M590 148 c0 -25 12 -58 21 -58 6 0 13 10 18 22 l8 23 7 -23 c10 -31 22 -28 35 9 13 38 13 39 2 39 -5 0 -12 -10 -15 -22 l-7 -23 -10 25 -10 25 -14 -25 c-10 -18 -14 -20 -15 -8 0 9 -4 20 -10 23 -5 3 -10 0 -10 -7z"/> <path d="M710 145 c-18 -21 -3 -55 25 -55 15 0 25 7 28 22 11 39 -28 64 -53 33z"/> <path d="M790 125 c0 -19 5 -35 10 -35 6 0 10 10 10 23 0 13 5 28 12 35 9 9 7 12 -10 12 -18 0 -22 -6 -22 -35z"/> <path d="M890 126 c0 -20 5 -36 10 -36 6 0 8 11 4 25 -5 21 -3 25 14 25 15 0 22 -8 25 -27 4 -21 4 -19 3 7 -1 30 -5 35 -28 38 -26 3 -28 1 -28 -32z"/> <path d="M980 145 c-7 -9 -9 -22 -5 -32 5 -10 7 -23 6 -30 -2 -17 16 -25 39 -18 16 5 20 15 20 48 0 38 -3 43 -24 45 -13 1 -29 -5 -36 -13z m40 -26 c0 -24 -23 -21 -28 4 -2 10 3 17 12 17 10 0 16 -9 16 -21z"/> <path d="M1105 138 c3 -13 10 -36 14 -53 5 -21 9 -25 13 -15 3 8 13 32 22 53 9 20 12 37 7 37 -5 0 -14 -12 -19 -27 l-10 -28 -7 28 c-4 15 -12 27 -17 27 -6 0 -7 -9 -3 -22z"/> <path d="M1190 145 c-20 -25 -8 -50 25 -50 21 0 31 5 33 18 4 21 -14 47 -33 47 -7 0 -18 -7 -25 -15z"/> <path d="M1273 130 c2 -30 6 -35 30 -38 25 -3 27 -1 27 34 0 21 -3 34 -7 30 -5 -4 -8 -18 -8 -29 0 -33 -29 -27 -37 8 -6 29 -6 29 -5 -5z"/> <path d="M1361 120 c1 -21 3 -27 6 -15 3 11 12 28 20 37 14 15 13 17 -6 15 -17 -1 -21 -7 -20 -37z"/> <path d="M1551 121 c2 -31 3 -32 6 -8 3 20 9 27 21 25 11 -2 16 -11 14 -26 -2 -12 2 -22 8 -22 7 0 10 13 8 33 -3 27 -7 32 -30 33 -26 1 -28 -2 -27 -35z"/> <path d="M1640 145 c-20 -24 -3 -55 31 -55 27 0 29 3 29 35 0 30 -3 35 -24 35 -13 0 -29 -7 -36 -15z m44 -13 c8 -13 -11 -35 -23 -28 -16 10 -14 36 3 36 8 0 17 -4 20 -8z"/> <path d="M1731 123 c2 -31 3 -33 6 -10 5 34 33 36 33 2 0 -14 5 -25 10 -25 11 0 13 30 4 54 -3 9 -17 16 -30 16 -21 0 -24 -4 -23 -37z"/> <path d="M1822 151 c-8 -4 -12 -19 -10 -32 4 -30 58 -42 58 -13 0 13 -3 14 -13 5 -15 -12 -27 -5 -27 17 0 10 7 13 21 9 13 -3 19 -1 16 6 -5 15 -28 19 -45 8z"/> <path d="M1942 143 c-16 -28 -2 -53 29 -53 26 0 29 3 29 33 0 27 -4 33 -25 35 -14 1 -28 -5 -33 -15z m46 -20 c-2 -10 -10 -18 -18 -18 -8 0 -16 8 -18 18 -2 12 3 17 18 17 15 0 20 -5 18 -17z"/> <path d="M2110 145 c-10 -12 -8 -16 14 -25 34 -13 34 -22 0 -14 -19 5 -25 4 -20 -5 4 -6 18 -11 32 -11 30 0 33 29 4 37 -11 3 -17 9 -15 14 3 4 13 5 22 2 11 -4 14 -3 9 5 -10 16 -31 15 -46 -3z"/> <path d="M2240 125 c0 -19 5 -35 10 -35 6 0 10 11 10 25 0 14 5 25 10 25 6 0 10 5 10 10 0 6 -9 10 -20 10 -16 0 -20 -7 -20 -35z"/> <path d="M2300 145 c-20 -24 -3 -55 31 -55 26 0 29 3 29 33 0 27 -4 33 -24 35 -13 1 -29 -5 -36 -13z m45 -25 c0 -22 -29 -18 -33 3 -3 14 1 18 15 15 10 -2 18 -10 18 -18z"/> <path d="M2450 145 c-19 -22 -8 -50 21 -53 19 -2 28 2 31 16 11 41 -26 68 -52 37z"/> <path d="M2530 145 c-7 -9 -9 -22 -5 -32 5 -10 7 -23 6 -30 -2 -14 34 -27 49 -18 5 3 10 25 10 48 0 38 -3 43 -24 45 -13 1 -29 -5 -36 -13z m48 -22 c-2 -10 -10 -18 -18 -18 -8 0 -16 8 -18 18 -2 12 3 17 18 17 15 0 20 -5 18 -17z"/> <path d="M2664 146 c-11 -29 1 -51 26 -51 19 0 26 6 28 24 5 35 -42 58 -54 27z"/> <path d="M2744 149 c-4 -7 4 -20 17 -31 l24 -19 -25 6 c-19 6 -22 5 -14 -5 14 -15 46 -10 52 8 2 7 -5 16 -17 19 -12 3 -21 10 -21 15 0 6 7 8 15 4 8 -3 15 -1 15 4 0 14 -37 12 -46 -1z"/> </g> </svg> 